<?xml version="1.0" encoding="UTF-8" standalone="no"?>
<svg
   xmlns:dc="http://purl.org/dc/elements/1.1/"
   xmlns:cc="http://creativecommons.org/ns#"
   xmlns:rdf="http://www.w3.org/1999/02/22-rdf-syntax-ns#"
   xmlns:svg="http://www.w3.org/2000/svg"
   xmlns="http://www.w3.org/2000/svg"
   viewBox="0 0 234.66667 165.33333"
   height="165.33333"
   width="234.66667"
   xml:space="preserve"
   id="svg2"
   version="1.1"><metadata
     id="metadata8"><rdf:RDF><cc:Work
         rdf:about=""><dc:format>image/svg+xml</dc:format><dc:type
           rdf:resource="http://purl.org/dc/dcmitype/StillImage" /></cc:Work></rdf:RDF></metadata><defs
     id="defs6" /><g
     transform="matrix(1.3333333,0,0,-1.3333333,0,165.33333)"
     id="g10"><g
       transform="scale(0.1)"
       id="g12"><path
         id="path14"
         style="fill:#ed1d24;fill-opacity:1;fill-rule:nonzero;stroke:none"
         d="m 1723.2,1046.37 c -20.23,76.21 -79.84,136.25 -155.58,156.6 C 1430.35,1240 880,1240 880,1240 c 0,0 -550.352,0 -687.621,-37.03 C 116.641,1182.62 57.0313,1122.58 36.7617,1046.37 0,908.238 0,620 0,620 0,620 0,331.762 36.7617,193.629 57.0313,117.422 116.641,57.3789 192.379,37.0313 329.648,0 880,0 880,0 c 0,0 550.35,0 687.62,37.0313 75.74,20.3476 135.35,80.3907 155.58,156.5977 C 1760,331.762 1760,620 1760,620 c 0,0 0,288.238 -36.8,426.37" /><path
         id="path16"
         style="fill:#ffffff;fill-opacity:1;fill-rule:nonzero;stroke:none"
         d="M 700,358.32 1160,620 700,881.68 Z" /></g></g></svg>
